<svg width="85" height="122.88" xmlns="http://www.w3.org/2000/svg" data-name="Layer 1">
 <title>career</title>

 <g>
  <title>Layer 1</title>
  <path id="svg_1" d="m81.71,78.89l0,-12.58l24.74,0l0,56.57l-89.09,0l0,-18.50999l21.41,0l0,-12.74001l20.79,0l0,-12.74l22.15,0zm-60.87,-27.09l-1.9,-1.54a0.19,0.19 0 0 0 -0.1,0a0.14,0.14 0 0 0 -0.1,0.05l-3.25,4a0.19,0.19 0 0 0 0,0.1a0.15,0.15 0 0 0 0.06,0.1l1.86,1.49a0.2,0.2 0 0 0 0.11,0a0.11,0.11 0 0 0 0.09,-0.05l3.25,-4a0.13,0.13 0 0 0 0,-0.1a0.14,0.14 0 0 0 -0.05,-0.1l0.03,0.05zm-5.45,-18.52l6.61,5.35l3.08,-3.63a1.34,1.34 0 0 1 0.89,-0.49a1.37,1.37 0 0 1 1,0.28c1.39,-1.59 2.77,-3.22 4.13,-4.82c1,-1.3 2,-2.48 3,-3.52a17.45,17.45 0 0 1 3.21,-2.77a14.25,14.25 0 0 1 4.12,-1.84l0,0a22.9,22.9 0 0 1 5.49,-0.71l0.08,0c1.52,-0.08 3.3,0 4.79,0l1.84,0c7.48,0 11.2,3.66 14.08,6.51l0,0c0.59,0.58 1.15,1.13 1.67,1.57a5.61,5.61 0 0 0 1.47,1l0,0c0.24,0.08 0.88,-0.24 1.59,-0.6l0,0a14.7,14.7 0 0 1 1.75,-0.78c2.5,-1.15 5.06,-2.54 7.55,-3.56a3.53,3.53 0 0 1 1.67001,-0.25a4.71,4.71 0 0 1 1.71999,0.5a5.12,5.12 0 0 1 1.09,0.74a5.49,5.49 0 0 1 0.89,1l0,0.05a5.32,5.32 0 0 1 0.64,1.23l0,0a5.29,5.29 0 0 1 -0.16,3.81a5.26,5.26 0 0 1 -0.75999,1.41a5.41,5.41 0 0 1 -2.46,1.84c-1.87,0.91 -3.75,1.84 -5.64,2.65a28.06,28.06 0 0 1 -4.92001,1.76a14.92,14.92 0 0 1 -5.87,0l-0.18,0a15.51,15.51 0 0 1 -6.06,-3.55l-1,9.63c0.77,0.4 1.53,0.75 2.27,1.07c0.91,0.39 1.78,0.73 2.63,1.06l0,0c5.42,2.11 9.88,3.86 11.36,12.14c0.18,1 0.35,3 0.49,5.3c0.23,3.45 0.4,7.48 0.44,8.95l0,0a0.57,0.57 0 0 1 0,0.18a0.69,0.69 0 0 1 -0.66,0.51l-0.11,0a5.59,5.59 0 0 1 -0.64,0.06l-1.74001,0c-2,0 -4.50999,0 -5.68999,0l-0.29,0c-0.42001,0 -0.62,0 -0.88,-0.28a1,1 0 0 1 -0.21999,-0.78l0,-0.4c-0.09,-1.67 -0.27,-4.47 -0.45,-7c-0.14,-1.8 -0.27,-3.42 -0.38,-4.28a7.19,7.19 0 0 0 -0.18,-0.88a4.51,4.51 0 0 0 -0.32,-0.79l-0.09,-0.16c-0.3,-0.55 -0.57,-1.06 -0.78,-1.14l0,0c-0.39,-0.16 -0.91,-0.33 -1.51,-0.51s-1.48,-0.42 -2.27,-0.63s-1.72,-0.43 -2.68,-0.65l-2.28,-0.51c-0.66,2.75 -1.19,5.65 -1.72,8.7c-1.32,7.23 -2.72,14.89 -5.35,21a0.7,0.7 0 0 1 -0.87,0.39a12.86,12.86 0 0 1 -2.15,0.14c-2.13,0 -5.08,0 -6.35,-0.08l-0.28,0c-0.43,0 -0.65,0 -0.89,-0.35l0,0a1,1 0 0 1 -0.11,-0.85l0.07,-0.33c0.13,-0.67 0.34,-1.71 0.61,-3l1.12,-5.21c0.74,-3.43 1.75,-8 2.73,-12.39c1.27,-5.74 2.4,-10.75 2.79,-12.47c-0.36,-0.41 -0.72,-0.83 -1,-1.27a13.27,13.27 0 0 1 -1.12,-1.77a9.3,9.3 0 0 1 -0.81,-2.23a7.31,7.31 0 0 1 -0.11,-2.48l1.72,-13.39a4,4 0 0 0 -1.75,0.42l0,0a6.05,6.05 0 0 0 -1.48,1.18c-0.49,0.52 -1,1.15 -1.5,1.82l0,0c-0.41,0.52 -0.84,1.08 -1.37,1.7c-1.29,1.5 -2.59,3.06 -3.9,4.57a1.34,1.34 0 0 1 -0.21,1.33l-3.19,3.65l6.59,5.35a1.89,1.89 0 0 1 0.68,1.22a1.86,1.86 0 0 1 -0.41,1.38l-2.86,3.62a42,42 0 0 1 -7.45,-1.26a37,37 0 0 1 -6.95,-2.61l1.14,-1.41a1.51,1.51 0 0 0 -0.22,-2.13l-2.2,-1.79l0,0a1.51,1.51 0 0 0 -2.13,0.22l-1.12,1.38a37.44,37.44 0 0 1 -3.88,-6.12a41.72,41.72 0 0 1 -2.79,-7.28l2.79,-3.43a1.88,1.88 0 0 1 2.64,-0.28l-0.04,-0.01zm9.83,4.94l-1.51,1.78l6.23,5l1.16,-1.34c-1.77,-1.52 -4.21,-3.7 -5.77,-5.33l-0.11,-0.12l0,0.01zm8.68,21.78l-7.77,9.58a1.82,1.82 0 0 1 -1.26,0.68a1.89,1.89 0 0 1 -1.38,-0.4l-22.8,-18.46a1.89,1.89 0 0 1 -0.69,-1.27a1.83,1.83 0 0 1 0.41,-1.37l7.84,-9.67a43.38,43.38 0 0 0 2.49,6a38.65,38.65 0 0 0 4.5,7l-1.24,1.53a1.51,1.51 0 0 0 0.23,2.13l2.2,1.79a1.51,1.51 0 0 0 2.13,-0.22l1.29,-1.59l-0.06,0.11a38.81,38.81 0 0 0 7.9,3a42.16,42.16 0 0 0 6.21,1.16zm42.75,14.7l0,0c0,0.07 0,0.08 0,0zm-24,-74a9.13,9.13 0 0 1 3.6,-0.7a9.28,9.28 0 0 1 8.61,5.73a9.13,9.13 0 0 1 0.72,3.56a9.28,9.28 0 0 1 -5.73,8.61a9.13,9.13 0 0 1 -3.56,0.72a9.37,9.37 0 0 1 -3.56,-0.7a9.25,9.25 0 0 1 -5,-5a9.13,9.13 0 0 1 -0.73,-3.59a9.28,9.28 0 0 1 5.69,-8.61l-0.04,-0.02z"/>
 </g>
</svg>